<?xml version='1.0' encoding='utf-8'?>
<svg xmlns="http://www.w3.org/2000/svg" width="760" height="132" viewBox="0 0 760 132"><rect width="760" height="132" fill="#FFFFFF" /><g transform="translate(60 26) scale(1.6666666666666667)" fill="none" stroke="#3F67D5" color="#3F67D5" stroke-width="2" stroke-linecap="round" stroke-linejoin="round"><path d="M6 22a2 2 0 0 1-2-2V4a2 2 0 0 1 2-2h8a2.4 2.4 0 0 1 1.704.706l3.588 3.588A2.4 2.4 0 0 1 20 8v12a2 2 0 0 1-2 2z" fill="currentColor" fill-opacity="0.12" /><path d="M14 2v5a1 1 0 0 0 1 1h5" /><path d="M10 9H8" /><path d="M16 13H8" /><path d="M16 17H8" /></g><text x="80" y="103" fill="#68707F" text-anchor="middle" font-size="14" font-family="PingFang SC,Arial Unicode MS,sans-serif">文档</text><g transform="translate(180 26) scale(1.6666666666666667)" fill="none" stroke="#24865A" color="#24865A" stroke-width="2" stroke-linecap="round" stroke-linejoin="round"><path d="M3 9h18" /><path d="M9 3v18" /><rect x="3" y="3" width="18" height="18" rx="2" fill="currentColor" fill-opacity="0.12" /></g><text x="200" y="103" fill="#68707F" text-anchor="middle" font-size="14" font-family="PingFang SC,Arial Unicode MS,sans-serif">表格</text><g transform="translate(300 26) scale(1.6666666666666667)" fill="none" stroke="#BF6B20" color="#BF6B20" stroke-width="2" stroke-linecap="round" stroke-linejoin="round"><path d="M2 3h20" /><path d="M21 3v11a2 2 0 0 1-2 2H5a2 2 0 0 1-2-2V3" fill="currentColor" fill-opacity="0.12" /><path d="m7 21 5-5 5 5" /></g><text x="320" y="103" fill="#68707F" text-anchor="middle" font-size="14" font-family="PingFang SC,Arial Unicode MS,sans-serif">幻灯片</text><g transform="translate(420 26) scale(1.6666666666666667)" fill="none" stroke="#7950B8" color="#7950B8" stroke-width="2" stroke-linecap="round" stroke-linejoin="round"><path d="M4 12.15V4a2 2 0 0 1 2-2h8a2.4 2.4 0 0 1 1.706.706l3.588 3.588A2.4 2.4 0 0 1 20 8v12a2 2 0 0 1-2 2h-3.35" fill="currentColor" fill-opacity="0.12" /><path d="M14 2v5a1 1 0 0 0 1 1h5" /><path d="m5 16-3 3 3 3" /><path d="m9 22 3-3-3-3" /></g><text x="440" y="103" fill="#68707F" text-anchor="middle" font-size="14" font-family="PingFang SC,Arial Unicode MS,sans-serif">Markdown</text><g transform="translate(540 26) scale(1.6666666666666667)" fill="none" stroke="#AB7A21" color="#AB7A21" stroke-width="2" stroke-linecap="round" stroke-linejoin="round"><path d="M12 3H5a2 2 0 0 0-2 2v14a2 2 0 0 0 2 2h14a2 2 0 0 0 2-2v-7" fill="currentColor" fill-opacity="0.12" /><path d="M18.375 2.625a1 1 0 0 1 3 3l-9.013 9.014a2 2 0 0 1-.853.505l-2.873.84a.5.5 0 0 1-.62-.62l.84-2.873a2 2 0 0 1 .506-.852z" /></g><text x="560" y="103" fill="#68707F" text-anchor="middle" font-size="14" font-family="PingFang SC,Arial Unicode MS,sans-serif">画布</text><g transform="translate(660 26) scale(1.6666666666666667)" fill="none" stroke="#7762BF" color="#7762BF" stroke-width="2" stroke-linecap="round" stroke-linejoin="round"><path d="M12 5v16" /><path d="M20.001 19A2 2 0 0022 17V5a2 2 0 00-1.999-2L16 3.002A5 5 0 0012 5a5 5 0 00-4-2H4a2 2 0 00-2 2v12a2 2 0 001.999 2H8a5 5 0 014 2 5 5 0 014-2z" fill="currentColor" fill-opacity="0.12" /></g><text x="680" y="103" fill="#68707F" text-anchor="middle" font-size="14" font-family="PingFang SC,Arial Unicode MS,sans-serif">知识库</text></svg>